<mxfile host="65bd71144e">
    <diagram id="Rc5hr2WGM002AqjLndv9" name="Page-1">
        <mxGraphModel dx="1774" dy="807" grid="1" gridSize="10" guides="1" tooltips="1" connect="1" arrows="1" fold="1" page="1" pageScale="1" pageWidth="827" pageHeight="1169" math="0" shadow="0">
            <root>
                <mxCell id="0"/>
                <object label="Base" id="1">
                    <mxCell style="" parent="0"/>
                </object>
                <mxCell id="4" value="" style="rounded=1;arcSize=10;dashed=0;fillColor=none;gradientColor=none;strokeWidth=2;strokeColor=#FF9933;" vertex="1" parent="1">
                    <mxGeometry x="280" y="230" width="840" height="700" as="geometry"/>
                </mxCell>
                <mxCell id="5" value="" style="dashed=0;html=1;shape=mxgraph.aws3.cloud;fillColor=#F58536;gradientColor=none;dashed=0;" vertex="1" parent="1">
                    <mxGeometry x="300" y="210" width="52" height="36" as="geometry"/>
                </mxCell>
                <mxCell id="8" value="" style="outlineConnect=0;dashed=0;verticalLabelPosition=bottom;verticalAlign=top;align=center;html=1;shape=mxgraph.aws3.internet_3;fillColor=#D2D3D3;gradientColor=none;" vertex="1" parent="1">
                    <mxGeometry x="100" y="531" width="79.5" height="54" as="geometry"/>
                </mxCell>
                <mxCell id="41" value="" style="rounded=1;arcSize=10;strokeColor=#F59D56;fillColor=none;gradientColor=none;strokeWidth=2;" vertex="1" parent="1">
                    <mxGeometry x="990" y="300" width="110" height="600" as="geometry"/>
                </mxCell>
                <object label="VPC" id="9">
                    <mxCell style="" parent="0"/>
                </object>
                <mxCell id="14" value="" style="rounded=1;arcSize=10;dashed=0;fillColor=none;gradientColor=none;strokeWidth=2;strokeColor=#FF9933;" vertex="1" parent="9">
                    <mxGeometry x="314" y="300" width="626" height="600" as="geometry"/>
                </mxCell>
                <mxCell id="15" value="" style="dashed=0;html=1;shape=mxgraph.aws3.virtual_private_cloud;fillColor=#F58536;gradientColor=none;dashed=0;" vertex="1" parent="9">
                    <mxGeometry x="334" y="280" width="52" height="36" as="geometry"/>
                </mxCell>
                <object label="Networking" id="16">
                    <mxCell parent="0"/>
                </object>
                <mxCell id="17" value="" style="rounded=1;arcSize=10;dashed=0;fillColor=none;gradientColor=none;strokeWidth=2;strokeColor=#FF9933;" vertex="1" parent="16">
                    <mxGeometry x="380" y="360" width="510" height="200" as="geometry"/>
                </mxCell>
                <mxCell id="18" value="" style="dashed=0;html=1;shape=mxgraph.aws3.permissions;fillColor=#D9A741;gradientColor=none;dashed=0;" vertex="1" parent="16">
                    <mxGeometry x="400" y="340" width="30" height="35" as="geometry"/>
                </mxCell>
                <mxCell id="19" value="" style="rounded=1;arcSize=10;dashed=0;fillColor=none;gradientColor=none;strokeWidth=2;strokeColor=#FF9933;" vertex="1" parent="16">
                    <mxGeometry x="380" y="640" width="510" height="200" as="geometry"/>
                </mxCell>
                <mxCell id="20" value="" style="dashed=0;html=1;shape=mxgraph.aws3.permissions;fillColor=#D9A741;gradientColor=none;dashed=0;" vertex="1" parent="16">
                    <mxGeometry x="400" y="620" width="30" height="35" as="geometry"/>
                </mxCell>
                <mxCell id="21" value="Private Subnet" style="text;html=1;strokeColor=none;fillColor=none;align=center;verticalAlign=middle;whiteSpace=wrap;rounded=0;" vertex="1" parent="16">
                    <mxGeometry x="430" y="330" width="100" height="30" as="geometry"/>
                </mxCell>
                <mxCell id="22" value="Public Subnet" style="text;html=1;strokeColor=none;fillColor=none;align=center;verticalAlign=middle;whiteSpace=wrap;rounded=0;" vertex="1" parent="16">
                    <mxGeometry x="430" y="610" width="100" height="30" as="geometry"/>
                </mxCell>
                <mxCell id="23" value="" style="outlineConnect=0;dashed=0;verticalLabelPosition=bottom;verticalAlign=top;align=center;html=1;shape=mxgraph.aws3.vpc_nat_gateway;fillColor=#F58534;gradientColor=none;flipV=0;flipH=1;" vertex="1" parent="16">
                    <mxGeometry x="283" y="390" width="69" height="72" as="geometry"/>
                </mxCell>
                <mxCell id="24" value="" style="outlineConnect=0;dashed=0;verticalLabelPosition=bottom;verticalAlign=top;align=center;html=1;shape=mxgraph.aws3.internet_gateway;fillColor=#F58534;gradientColor=none;" vertex="1" parent="16">
                    <mxGeometry x="283" y="704" width="69" height="72" as="geometry"/>
                </mxCell>
                <mxCell id="25" value="NAT Gateway" style="text;html=1;strokeColor=none;fillColor=none;align=center;verticalAlign=middle;whiteSpace=wrap;rounded=0;" vertex="1" parent="16">
                    <mxGeometry x="210" y="380" width="60" height="30" as="geometry"/>
                </mxCell>
                <mxCell id="27" value="" style="line;strokeWidth=4;html=1;perimeter=backbonePerimeter;points=[];outlineConnect=0;" vertex="1" parent="16">
                    <mxGeometry x="414" y="462" width="430" height="10" as="geometry"/>
                </mxCell>
                <mxCell id="28" value="" style="line;strokeWidth=4;html=1;perimeter=backbonePerimeter;points=[];outlineConnect=0;" vertex="1" parent="16">
                    <mxGeometry x="420" y="790" width="430" height="10" as="geometry"/>
                </mxCell>
                <mxCell id="29" value="" style="endArrow=none;html=1;entryX=1;entryY=0.5;entryDx=0;entryDy=0;entryPerimeter=0;exitX=0.38;exitY=0.02;exitDx=0;exitDy=0;exitPerimeter=0;rounded=0;startArrow=classic;startFill=1;strokeWidth=2;" edge="1" parent="16" source="8" target="23">
                    <mxGeometry width="50" height="50" relative="1" as="geometry">
                        <mxPoint x="60" y="460" as="sourcePoint"/>
                        <mxPoint x="110" y="410" as="targetPoint"/>
                        <Array as="points">
                            <mxPoint x="130" y="426"/>
                        </Array>
                    </mxGeometry>
                </mxCell>
                <mxCell id="30" value="" style="endArrow=classicThin;html=1;rounded=0;entryX=0;entryY=0.5;entryDx=0;entryDy=0;entryPerimeter=0;exitX=0.5;exitY=1;exitDx=0;exitDy=0;exitPerimeter=0;endFill=1;strokeWidth=2;" edge="1" parent="16" source="8" target="24">
                    <mxGeometry width="50" height="50" relative="1" as="geometry">
                        <mxPoint x="160" y="740" as="sourcePoint"/>
                        <mxPoint x="210" y="690" as="targetPoint"/>
                        <Array as="points">
                            <mxPoint x="140" y="740"/>
                        </Array>
                    </mxGeometry>
                </mxCell>
                <mxCell id="31" value="" style="endArrow=none;html=1;rounded=0;entryX=1;entryY=0.5;entryDx=0;entryDy=0;entryPerimeter=0;strokeWidth=2;" edge="1" parent="16" source="28" target="24">
                    <mxGeometry width="50" height="50" relative="1" as="geometry">
                        <mxPoint x="170" y="870" as="sourcePoint"/>
                        <mxPoint x="220" y="820" as="targetPoint"/>
                        <Array as="points">
                            <mxPoint x="440" y="740"/>
                        </Array>
                    </mxGeometry>
                </mxCell>
                <mxCell id="32" value="" style="outlineConnect=0;dashed=0;verticalLabelPosition=bottom;verticalAlign=top;align=center;html=1;shape=mxgraph.aws3.endpoints;fillColor=#F58536;gradientColor=none;" vertex="1" parent="16">
                    <mxGeometry x="910" y="548" width="69" height="72" as="geometry"/>
                </mxCell>
                <mxCell id="33" value="" style="outlineConnect=0;dashed=0;verticalLabelPosition=bottom;verticalAlign=top;align=center;html=1;shape=mxgraph.aws3.classic_load_balancer;fillColor=#F58536;gradientColor=none;" vertex="1" parent="16">
                    <mxGeometry x="740" y="690" width="69" height="72" as="geometry"/>
                </mxCell>
                <mxCell id="34" value="" style="outlineConnect=0;dashed=0;verticalLabelPosition=bottom;verticalAlign=top;align=center;html=1;shape=mxgraph.aws3.application_load_balancer;fillColor=#F58536;gradientColor=none;" vertex="1" parent="16">
                    <mxGeometry x="560" y="690" width="69" height="72" as="geometry"/>
                </mxCell>
                <mxCell id="35" value="" style="outlineConnect=0;dashed=0;verticalLabelPosition=bottom;verticalAlign=top;align=center;html=1;shape=mxgraph.aws3.application_load_balancer;fillColor=#F58536;gradientColor=none;" vertex="1" parent="16">
                    <mxGeometry x="451" y="478" width="69" height="72" as="geometry"/>
                </mxCell>
                <mxCell id="36" value="" style="endArrow=none;html=1;rounded=0;strokeWidth=2;exitX=0;exitY=0.5;exitDx=0;exitDy=0;exitPerimeter=0;" edge="1" parent="16" source="23" target="27">
                    <mxGeometry width="50" height="50" relative="1" as="geometry">
                        <mxPoint x="60" y="320" as="sourcePoint"/>
                        <mxPoint x="110" y="270" as="targetPoint"/>
                        <Array as="points">
                            <mxPoint x="440" y="426"/>
                        </Array>
                    </mxGeometry>
                </mxCell>
                <mxCell id="37" value="" style="endArrow=none;html=1;rounded=0;strokeWidth=2;entryX=0.145;entryY=0.145;entryDx=0;entryDy=0;entryPerimeter=0;" edge="1" parent="16" source="27" target="32">
                    <mxGeometry width="50" height="50" relative="1" as="geometry">
                        <mxPoint x="790" y="620" as="sourcePoint"/>
                        <mxPoint x="840" y="570" as="targetPoint"/>
                        <Array as="points">
                            <mxPoint x="830" y="500"/>
                            <mxPoint x="920" y="500"/>
                        </Array>
                    </mxGeometry>
                </mxCell>
                <mxCell id="38" value="" style="endArrow=none;html=1;rounded=0;strokeWidth=2;entryX=0.145;entryY=0.855;entryDx=0;entryDy=0;entryPerimeter=0;" edge="1" parent="16" source="28" target="32">
                    <mxGeometry width="50" height="50" relative="1" as="geometry">
                        <mxPoint x="800" y="760" as="sourcePoint"/>
                        <mxPoint x="850" y="710" as="targetPoint"/>
                        <Array as="points">
                            <mxPoint x="830" y="740"/>
                            <mxPoint x="920" y="740"/>
                        </Array>
                    </mxGeometry>
                </mxCell>
                <mxCell id="39" value="VPC&amp;nbsp;&lt;br&gt;Endpoint" style="text;html=1;strokeColor=none;fillColor=none;align=center;verticalAlign=middle;whiteSpace=wrap;rounded=0;" vertex="1" parent="16">
                    <mxGeometry x="850" y="580" width="60" height="30" as="geometry"/>
                </mxCell>
                <mxCell id="45" value="" style="outlineConnect=0;dashed=0;verticalLabelPosition=bottom;verticalAlign=top;align=center;html=1;shape=mxgraph.aws3.s3;fillColor=#E05243;gradientColor=none;strokeColor=#FF9933;" vertex="1" parent="16">
                    <mxGeometry x="1007" y="690" width="76.5" height="93" as="geometry"/>
                </mxCell>
                <mxCell id="46" value="S3 Storage" style="text;html=1;strokeColor=none;fillColor=none;align=center;verticalAlign=middle;whiteSpace=wrap;rounded=0;" vertex="1" parent="16">
                    <mxGeometry x="1015" y="790" width="60" height="30" as="geometry"/>
                </mxCell>
                <mxCell id="47" value="main" style="text;html=1;strokeColor=none;fillColor=none;align=center;verticalAlign=middle;whiteSpace=wrap;rounded=0;" vertex="1" parent="16">
                    <mxGeometry x="830" y="711" width="60" height="30" as="geometry"/>
                </mxCell>
                <mxCell id="48" value="" style="outlineConnect=0;dashed=0;verticalLabelPosition=bottom;verticalAlign=top;align=center;html=1;shape=mxgraph.aws3.dynamo_db;fillColor=#2E73B8;gradientColor=none;strokeColor=#FF9933;" vertex="1" parent="16">
                    <mxGeometry x="1012" y="420" width="72" height="81" as="geometry"/>
                </mxCell>
                <mxCell id="49" value="DynamoDB" style="text;html=1;strokeColor=none;fillColor=none;align=center;verticalAlign=middle;whiteSpace=wrap;rounded=0;" vertex="1" parent="16">
                    <mxGeometry x="1018" y="518" width="60" height="30" as="geometry"/>
                </mxCell>
                <mxCell id="50" value="" style="endArrow=none;html=1;rounded=0;strokeWidth=2;entryX=0;entryY=0.5;entryDx=0;entryDy=0;entryPerimeter=0;exitX=0.855;exitY=0.145;exitDx=0;exitDy=0;exitPerimeter=0;" edge="1" parent="16" source="32" target="48">
                    <mxGeometry width="50" height="50" relative="1" as="geometry">
                        <mxPoint x="1150" y="580" as="sourcePoint"/>
                        <mxPoint x="1200" y="530" as="targetPoint"/>
                        <Array as="points">
                            <mxPoint x="969" y="461"/>
                        </Array>
                    </mxGeometry>
                </mxCell>
                <mxCell id="51" value="" style="endArrow=none;html=1;rounded=0;strokeWidth=2;entryX=0.855;entryY=0.855;entryDx=0;entryDy=0;entryPerimeter=0;exitX=0;exitY=0.5;exitDx=0;exitDy=0;exitPerimeter=0;" edge="1" parent="16" source="45" target="32">
                    <mxGeometry width="50" height="50" relative="1" as="geometry">
                        <mxPoint x="1130" y="710" as="sourcePoint"/>
                        <mxPoint x="1180" y="660" as="targetPoint"/>
                        <Array as="points">
                            <mxPoint x="969" y="737"/>
                        </Array>
                    </mxGeometry>
                </mxCell>
                <mxCell id="52" value="Bootstrap" style="whiteSpace=wrap;html=1;aspect=fixed;strokeColor=#FF0000;fontSize=10;" vertex="1" parent="16">
                    <mxGeometry x="760" y="489" width="50" height="50" as="geometry"/>
                </mxCell>
                <mxCell id="53" value="Master0" style="whiteSpace=wrap;html=1;aspect=fixed;strokeColor=#FF0000;fontSize=10;" vertex="1" parent="16">
                    <mxGeometry x="520" y="380" width="50" height="50" as="geometry"/>
                </mxCell>
                <mxCell id="54" value="Master1" style="whiteSpace=wrap;html=1;aspect=fixed;strokeColor=#FF0000;fontSize=10;" vertex="1" parent="16">
                    <mxGeometry x="540" y="390" width="50" height="50" as="geometry"/>
                </mxCell>
                <mxCell id="55" value="Master2" style="whiteSpace=wrap;html=1;aspect=fixed;strokeColor=#FF0000;fontSize=10;" vertex="1" parent="16">
                    <mxGeometry x="560" y="400" width="50" height="50" as="geometry"/>
                </mxCell>
                <mxCell id="56" value="Worker0" style="whiteSpace=wrap;html=1;aspect=fixed;strokeColor=#FF0000;fontSize=10;" vertex="1" parent="16">
                    <mxGeometry x="780" y="385" width="50" height="50" as="geometry"/>
                </mxCell>
                <mxCell id="57" value="Worker1" style="whiteSpace=wrap;html=1;aspect=fixed;strokeColor=#FF0000;fontSize=10;" vertex="1" parent="16">
                    <mxGeometry x="790" y="395" width="50" height="50" as="geometry"/>
                </mxCell>
                <mxCell id="58" value="Infra0" style="whiteSpace=wrap;html=1;aspect=fixed;strokeColor=#FF0000;fontSize=10;" vertex="1" parent="16">
                    <mxGeometry x="690" y="380" width="50" height="50" as="geometry"/>
                </mxCell>
                <mxCell id="59" value="Infra1" style="whiteSpace=wrap;html=1;aspect=fixed;strokeColor=#FF0000;fontSize=10;" vertex="1" parent="16">
                    <mxGeometry x="700" y="390" width="50" height="50" as="geometry"/>
                </mxCell>
                <mxCell id="60" value="" style="endArrow=none;html=1;rounded=0;fontSize=10;strokeWidth=2;entryX=0.5;entryY=1;entryDx=0;entryDy=0;" edge="1" parent="16" source="27" target="55">
                    <mxGeometry width="50" height="50" relative="1" as="geometry">
                        <mxPoint x="100" y="330" as="sourcePoint"/>
                        <mxPoint x="150" y="280" as="targetPoint"/>
                    </mxGeometry>
                </mxCell>
                <mxCell id="61" value="" style="endArrow=none;html=1;rounded=0;fontSize=10;strokeWidth=2;entryX=0.5;entryY=1;entryDx=0;entryDy=0;" edge="1" parent="16" source="27" target="57">
                    <mxGeometry width="50" height="50" relative="1" as="geometry">
                        <mxPoint x="590" y="370" as="sourcePoint"/>
                        <mxPoint x="640" y="320" as="targetPoint"/>
                    </mxGeometry>
                </mxCell>
                <mxCell id="62" value="" style="endArrow=none;html=1;rounded=0;fontSize=10;strokeWidth=2;entryX=0.5;entryY=1;entryDx=0;entryDy=0;" edge="1" parent="16" source="27" target="59">
                    <mxGeometry width="50" height="50" relative="1" as="geometry">
                        <mxPoint x="690" y="550" as="sourcePoint"/>
                        <mxPoint x="740" y="500" as="targetPoint"/>
                    </mxGeometry>
                </mxCell>
                <mxCell id="63" value="" style="endArrow=none;html=1;rounded=0;fontSize=10;strokeWidth=2;exitX=0.5;exitY=0;exitDx=0;exitDy=0;" edge="1" parent="16" source="52" target="27">
                    <mxGeometry width="50" height="50" relative="1" as="geometry">
                        <mxPoint x="760" y="460" as="sourcePoint"/>
                        <mxPoint x="810" y="410" as="targetPoint"/>
                    </mxGeometry>
                </mxCell>
                <mxCell id="64" value="" style="endArrow=none;html=1;rounded=0;fontSize=10;strokeWidth=2;entryX=0.5;entryY=0;entryDx=0;entryDy=0;entryPerimeter=0;" edge="1" parent="16" source="27" target="35">
                    <mxGeometry width="50" height="50" relative="1" as="geometry">
                        <mxPoint x="540" y="540" as="sourcePoint"/>
                        <mxPoint x="590" y="490" as="targetPoint"/>
                    </mxGeometry>
                </mxCell>
                <mxCell id="65" value="" style="endArrow=none;html=1;rounded=0;fontSize=10;strokeWidth=2;entryX=0.5;entryY=1;entryDx=0;entryDy=0;entryPerimeter=0;" edge="1" parent="16" source="28" target="33">
                    <mxGeometry width="50" height="50" relative="1" as="geometry">
                        <mxPoint x="170" y="900" as="sourcePoint"/>
                        <mxPoint x="220" y="850" as="targetPoint"/>
                    </mxGeometry>
                </mxCell>
                <mxCell id="66" value="" style="endArrow=none;html=1;rounded=0;fontSize=10;strokeWidth=2;entryX=0.5;entryY=1;entryDx=0;entryDy=0;entryPerimeter=0;" edge="1" parent="16" source="28" target="34">
                    <mxGeometry width="50" height="50" relative="1" as="geometry">
                        <mxPoint x="600" y="870" as="sourcePoint"/>
                        <mxPoint x="650" y="820" as="targetPoint"/>
                    </mxGeometry>
                </mxCell>
                <mxCell id="67" value="Classic&lt;br&gt;Load&lt;br&gt;Balancer" style="text;html=1;strokeColor=none;fillColor=none;align=center;verticalAlign=middle;whiteSpace=wrap;rounded=0;fontSize=10;" vertex="1" parent="16">
                    <mxGeometry x="670" y="711" width="60" height="30" as="geometry"/>
                </mxCell>
                <mxCell id="68" value="Application&lt;br&gt;Load&lt;br&gt;Balancer" style="text;html=1;strokeColor=none;fillColor=none;align=center;verticalAlign=middle;whiteSpace=wrap;rounded=0;fontSize=10;" vertex="1" parent="16">
                    <mxGeometry x="391" y="499" width="60" height="30" as="geometry"/>
                </mxCell>
                <mxCell id="69" value="Application&lt;br&gt;Load&lt;br&gt;Balancer" style="text;html=1;strokeColor=none;fillColor=none;align=center;verticalAlign=middle;whiteSpace=wrap;rounded=0;fontSize=10;" vertex="1" parent="16">
                    <mxGeometry x="485" y="711" width="60" height="30" as="geometry"/>
                </mxCell>
                <mxCell id="70" value="Internet&lt;br&gt;Gateway" style="text;html=1;strokeColor=none;fillColor=none;align=center;verticalAlign=middle;whiteSpace=wrap;rounded=0;fontSize=10;" vertex="1" parent="16">
                    <mxGeometry x="210" y="700" width="60" height="30" as="geometry"/>
                </mxCell>
                <mxCell id="71" value="" style="endArrow=none;dashed=1;html=1;rounded=0;fontSize=10;strokeWidth=2;exitX=0.5;exitY=0;exitDx=0;exitDy=0;exitPerimeter=0;entryX=0.75;entryY=1;entryDx=0;entryDy=0;" edge="1" parent="16" source="34" target="55">
                    <mxGeometry width="50" height="50" relative="1" as="geometry">
                        <mxPoint x="600" y="620" as="sourcePoint"/>
                        <mxPoint x="650" y="570" as="targetPoint"/>
                        <Array as="points">
                            <mxPoint x="595" y="600"/>
                            <mxPoint x="595" y="520"/>
                        </Array>
                    </mxGeometry>
                </mxCell>
                <mxCell id="72" value="Port 6443" style="text;html=1;strokeColor=none;fillColor=none;align=center;verticalAlign=middle;whiteSpace=wrap;rounded=0;fontSize=10;" vertex="1" parent="16">
                    <mxGeometry x="599" y="650" width="60" height="30" as="geometry"/>
                </mxCell>
                <mxCell id="73" value="OpenShift&lt;br&gt;Console" style="text;html=1;strokeColor=none;fillColor=none;align=center;verticalAlign=middle;whiteSpace=wrap;rounded=0;fontSize=10;" vertex="1" parent="16">
                    <mxGeometry x="540" y="760" width="60" height="30" as="geometry"/>
                </mxCell>
                <mxCell id="74" value="Workloads" style="text;html=1;strokeColor=none;fillColor=none;align=center;verticalAlign=middle;whiteSpace=wrap;rounded=0;fontSize=10;" vertex="1" parent="16">
                    <mxGeometry x="720" y="760" width="60" height="30" as="geometry"/>
                </mxCell>
                <mxCell id="76" value="" style="endArrow=none;dashed=1;html=1;rounded=0;fontSize=10;strokeWidth=2;entryX=0.25;entryY=1;entryDx=0;entryDy=0;" edge="1" parent="16" source="33" target="59">
                    <mxGeometry width="50" height="50" relative="1" as="geometry">
                        <mxPoint x="730" y="630" as="sourcePoint"/>
                        <mxPoint x="780" y="580" as="targetPoint"/>
                        <Array as="points">
                            <mxPoint x="775" y="600"/>
                            <mxPoint x="713" y="600"/>
                        </Array>
                    </mxGeometry>
                </mxCell>
                <mxCell id="77" value="Ports 80, 443" style="text;html=1;strokeColor=none;fillColor=none;align=center;verticalAlign=middle;whiteSpace=wrap;rounded=0;fontSize=10;" vertex="1" parent="16">
                    <mxGeometry x="780" y="650" width="60" height="30" as="geometry"/>
                </mxCell>
                <mxCell id="78" value="" style="endArrow=none;dashed=1;html=1;rounded=0;fontSize=10;strokeWidth=2;entryX=0.25;entryY=1;entryDx=0;entryDy=0;exitX=0.855;exitY=0.145;exitDx=0;exitDy=0;exitPerimeter=0;" edge="1" parent="16" source="35" target="55">
                    <mxGeometry width="50" height="50" relative="1" as="geometry">
                        <mxPoint x="390" y="480" as="sourcePoint"/>
                        <mxPoint x="440" y="430" as="targetPoint"/>
                        <Array as="points">
                            <mxPoint x="573" y="488"/>
                        </Array>
                    </mxGeometry>
                </mxCell>
                <mxCell id="79" value="Ports 6443, 22623" style="text;html=1;strokeColor=none;fillColor=none;align=center;verticalAlign=middle;whiteSpace=wrap;rounded=0;fontSize=10;" vertex="1" parent="16">
                    <mxGeometry x="520" y="489" width="60" height="30" as="geometry"/>
                </mxCell>
                <mxCell id="83" value="" style="rounded=1;whiteSpace=wrap;html=1;fontSize=10;strokeColor=#FF0000;fillColor=none;" vertex="1" parent="16">
                    <mxGeometry x="510" y="370" width="350" height="170" as="geometry"/>
                </mxCell>
                <mxCell id="81" value="" style="sketch=0;aspect=fixed;html=1;points=[];align=center;image;fontSize=12;image=img/lib/mscae/OpenShift.svg;strokeColor=#FF0000;" vertex="1" parent="16">
                    <mxGeometry x="620" y="360" width="50" height="46" as="geometry"/>
                </mxCell>
            </root>
        </mxGraphModel>
    </diagram>
</mxfile>